<?xml version="1.0" standalone="no"?>
<!DOCTYPE svg PUBLIC "-//W3C//DTD SVG 20010904//EN"
 "http://www.w3.org/TR/2001/REC-SVG-20010904/DTD/svg10.dtd">
<svg version="1.0" xmlns="http://www.w3.org/2000/svg"
 width="860.000000pt" height="779.000000pt" viewBox="0 0 860.000000 779.000000"
 preserveAspectRatio="xMidYMid meet">

<g transform="translate(0.000000,779.000000) scale(0.100000,-0.100000)"
fill="#000000" stroke="none">
<path d="M300 7017 l0 -364 516 -5 c284 -3 520 -10 524 -14 18 -19 1752 -4573
1772 -4653 11 -47 22 -87 23 -88 1 -3 3376 -64 4338 -79 317 -5 427 -4 427 4
0 14 -109 415 -115 420 -1 2 -918 60 -2036 129 -1119 70 -2036 128 -2037 129
-2 1 -68 168 -146 371 l-142 368 2257 3 2257 2 6 38 c6 34 38 310 176 1507 27
237 77 663 110 948 33 285 60 525 60 533 0 12 -47 14 -295 14 l-294 0 -6 -32
c-3 -18 -28 -226 -55 -463 -27 -236 -86 -740 -130 -1120 -44 -379 -84 -719
-88 -755 l-7 -65 -2113 0 -2113 0 -168 435 c-512 1325 -1073 2779 -1149 2977
l-47 123 -762 0 -763 0 0 -363z"/>
<path d="M2904 1711 c-208 -57 -366 -205 -430 -405 -38 -116 -38 -259 0 -369
48 -143 154 -275 273 -341 149 -84 332 -104 489 -53 77 26 170 79 225 129 133
122 207 306 196 488 -16 246 -174 454 -409 537 -101 35 -244 41 -344 14z"/>
<path d="M7284 1570 c-112 -36 -227 -125 -293 -229 -91 -142 -106 -349 -36
-507 93 -211 333 -347 555 -316 90 13 171 42 231 81 234 158 315 460 187 704
-67 128 -215 245 -348 276 -75 17 -227 12 -296 -9z"/>
</g>
</svg>
